<svg xmlns="http://www.w3.org/2000/svg" viewBox="0 0 120 120" fill="none" role="img" aria-label="VOXMETRIKS">
  <defs>
    <mask id="vx-icon-wave-cut">
      <rect width="120" height="120" fill="white"/>
      <path d="M34 55c8 0 7-13 14-13 8 0 7 27 14 27s7-20 14-20c6 0 6 9 13 9" stroke="black" stroke-width="6" stroke-linecap="round"/>
    </mask>
    <filter id="vx-icon-shadow" x="-20%" y="-20%" width="140%" height="140%">
      <feDropShadow dx="0" dy="5" stdDeviation="5" flood-color="#000" flood-opacity="0.2"/>
    </filter>
  </defs>
  <rect x="6" y="6" width="108" height="108" rx="31" fill="#fffdf8" filter="url(#vx-icon-shadow)"/>
  <rect x="6.75" y="6.75" width="106.5" height="106.5" rx="30.25" stroke="#1a1712" stroke-opacity="0.12" stroke-width="1.5"/>
  <path d="M20 18h16l24 59 24-59h16L68 101c-2.8 7.2-13.2 7.2-16 0L20 18Z" fill="#1a1712" mask="url(#vx-icon-wave-cut)" transform="translate(0 1) scale(1 0.98)"/>
</svg>
